<?xml version="1.0" standalone="no"?>
<!DOCTYPE svg PUBLIC "-//W3C//DTD SVG 20010904//EN"
 "http://www.w3.org/TR/2001/REC-SVG-20010904/DTD/svg10.dtd">
<svg version="1.0" xmlns="http://www.w3.org/2000/svg"
 width="512.000000pt" height="512.000000pt" viewBox="0 0 512.000000 512.000000"
 preserveAspectRatio="xMidYMid meet">
<metadata>
Created by potrace 1.14, written by Peter Selinger 2001-2017
</metadata>
<g transform="translate(0.000000,512.000000) scale(0.100000,-0.100000)"
fill="#000000" stroke="none">
<path d="M2634 5105 c-16 -9 -141 -127 -276 -263 -197 -198 -248 -255 -256
-285 -13 -45 -7 -81 18 -122 11 -16 534 -544 1162 -1172 781 -780 1154 -1147
1179 -1157 40 -17 84 -14 126 8 15 8 139 126 274 263 211 213 247 253 253 286
17 92 89 13 -1159 1262 -635 635 -1164 1161 -1178 1170 -36 23 -106 28 -143
10z"/>
<path d="M3544 5105 c-16 -9 -64 -49 -104 -90 l-75 -75 788 -787 787 -788 80
80 c84 83 104 121 96 183 -2 17 -10 42 -19 55 -26 40 -1398 1407 -1426 1420
-38 19 -91 20 -127 2z"/>
<path d="M4455 5106 c-31 -14 -182 -162 -174 -170 34 -39 655 -656 659 -656 4
0 43 37 87 83 71 72 82 89 88 128 5 31 2 56 -8 80 -20 47 -495 520 -539 536
-43 16 -76 15 -113 -1z"/>
<path d="M2230 2895 c-272 -272 -496 -498 -497 -502 -1 -4 146 -156 328 -338
l330 -329 501 501 502 502 -330 330 c-181 182 -331 331 -334 331 -3 0 -228
-223 -500 -495z"/>
<path d="M540 3010 c-19 -10 -146 -130 -282 -267 -203 -204 -247 -254 -253
-283 -7 -40 -2 -78 15 -110 6 -12 531 -541 1165 -1175 1026 -1025 1159 -1155
1196 -1165 87 -24 92 -20 362 248 137 136 255 258 262 272 21 41 25 90 9 129
-10 25 -357 378 -1167 1187 -633 634 -1163 1157 -1176 1164 -38 19 -93 19
-131 0z"/>
<path d="M93 1667 c-89 -91 -103 -123 -84 -194 10 -35 106 -136 714 -743 417
-418 715 -708 734 -716 73 -31 123 -11 223 90 l75 76 -785 785 c-432 432 -788
785 -791 785 -3 0 -42 -37 -86 -83z"/>
<path d="M93 758 c-51 -53 -83 -94 -87 -114 -7 -33 -1 -87 13 -112 13 -23 493
-502 514 -514 29 -15 68 -20 106 -13 25 5 58 30 121 90 l87 84 -328 328 c-181
180 -332 329 -337 331 -4 1 -44 -35 -89 -80z"/>
</g>
</svg>
